<?xml version="1.0" encoding="utf-8"?>
<!-- Svg Vector Icons : http://www.onlinewebfonts.com/icon -->
<!DOCTYPE svg PUBLIC "-//W3C//DTD SVG 1.1//EN" "http://www.w3.org/Graphics/SVG/1.1/DTD/svg11.dtd">
<svg version="1.1" xmlns="http://www.w3.org/2000/svg" xmlns:xlink="http://www.w3.org/1999/xlink" x="0px" y="0px" viewBox="0 0 256 256" enable-background="new 0 0 256 256" xml:space="preserve">
<metadata> Svg Vector Icons : http://www.onlinewebfonts.com/icon </metadata>
<g><g><g><path fill="#9f9275" d="M138.6,7.8c-1.1,0.5-2.7,1.9-3.5,3l-1.4,2l-0.2,79.8c-0.2,88.4-0.4,82.5,3.9,85.6l2,1.4h50.4c50,0,50.4,0,52.2-1.3c1-0.7,2.3-2.3,2.9-3.5c1.1-2,1.1-7.2,1.1-81.4c0-74.2-0.1-79.4-1.1-81.4c-0.6-1.2-1.9-2.8-2.9-3.5c-1.8-1.3-2.4-1.3-51.6-1.5C145.6,6.7,140.5,6.8,138.6,7.8z M158.7,22.2c1.3,0.8,1.9,0.8,3.6-0.1c4.5-2.2,9.8,1,9.8,5.7c0,1.3-0.4,3.4-1,4.5c-1.2,2.4-9.7,11.3-10.8,11.3c-1.4,0-9.9-8.9-11.1-11.6c-1.5-3.3-1.5-4.5-0.3-6.9C150.7,21.7,155.4,20.4,158.7,22.2z M181.3,62.1c1.9,0.7,4.4,2.4,5.8,3.8l2.5,2.5l3.2-2.9c9.4-8.5,26-5.2,31.6,6.2c1.8,3.8,1.8,10.4,0.1,15.5c-2.6,7.6-6.4,12.7-19.5,25.6c-7.1,7.1-13,12.4-14,12.7c-0.9,0.3-2.3,0.1-3.1-0.4c-2.5-1.3-20.7-19.1-24.6-24.1c-2-2.5-4.9-7-6.4-10c-2.3-4.6-2.7-6.2-3-10.4c-0.3-4.1-0.1-5.5,1.1-8.1C159,63.1,171.1,58.2,181.3,62.1z M217.3,143.9c1.7,0.8,2.1,0.8,3.9-0.1c3.9-2,9.2,0.4,9.9,4.6c0.4,1.9,0.1,3.1-1.3,5.7c-1.8,3.4-9.2,11-10.8,11c-1.1,0-9.5-8.7-10.8-11.3C204.8,147.2,210.9,140.5,217.3,143.9z"/><path fill="#9f9275" d="M104.7,41.1c-13.8,1.9-22.1,3.4-23.4,4.1c-1.4,0.7-2.5,2-3.4,3.9l-1.2,2.7l7.3,53.4c4.1,29.3,8.8,63.6,10.5,76.1c1.9,13.8,3.6,23.5,4.2,24.7c0.6,1.3,2,2.4,3.8,3.2l2.9,1.3l46.8-6.5c25.7-3.6,47.4-6.7,48.2-7c3.4-1.3,6.1-6.7,5.2-10.5l-0.4-1.6H193c-8,0-12.5,0.3-13,0.7c-0.5,0.5-1.1,0.5-2,0c-0.9-0.4-7.6-0.7-19.9-0.7c-20.4,0-21.3-0.1-25.4-4c-4.3-4.1-4.5-5.2-4.5-23.4v-16.2l-5.2-4.1c-11.5-9-17.7-18.1-18.3-26.4c-0.2-3.6,0-5.2,1-7.4c3.1-6.9,9.4-11.1,17.6-11.8l4.8-0.4V64.5c0-25-0.1-26.7-1.1-26.6C126.5,38,116.4,39.4,104.7,41.1z M114.3,56.9c2.2,2.3,2.4,5.2,0.6,9.2c-1.5,3.3-7.4,10.6-8.5,10.6c-2,0-10.4-6.8-12.3-9.9c-2.2-3.7-2-5.7,0.6-8.3c1.7-1.7,2.7-2.2,4.6-2.2c1.3,0,2.8,0.3,3.3,0.6c0.6,0.4,1.5,0.2,2.5-0.6c1-0.8,2.5-1.2,4.4-1.2C111.9,55.1,112.8,55.4,114.3,56.9z"/><path fill="#9f9275" d="M43.6,78c-15.6,7-29,13.2-29.9,13.9c-2.4,1.7-3.9,5.2-3.6,7.8c0.3,2.1,63,142.9,65.1,146.1c1.2,1.8,4.6,3.5,7.3,3.5c2.1,0,88.5-38.3,91.6-40.6c2.2-1.6,2.5-2.8,0.6-2.4c-3.4,0.8-66.7,9.3-69,9.3c-5.5-0.1-11.5-4.8-12.9-10.2c-0.4-1.6-1.5-8.5-2.4-15.3c-0.9-6.8-1.8-13-1.9-13.7c-0.3-1-1.6-1.9-5.5-3.4c-15-6-23.9-12.5-27.7-20.2c-5.9-12,4.3-27,18.3-27.1c2.3-0.1,5.1,0.2,6.2,0.5c1.9,0.4,2.1,0.4,1.8-0.6c-0.2-0.7-2.2-14.5-4.4-30.7c-2.3-17.1-4.3-29.4-4.6-29.4C72.2,65.2,59.2,71,43.6,78z M50.2,96.5c1.7,1.9,1.8,2.3,1.5,6.2c-0.3,3.9-2.7,11.3-4.4,13.2c-1,1.2-2.6,1-8-1.1c-8.7-3.4-12.2-7.7-9.9-12.4c1.2-2.7,3.7-4.1,6.9-4.1c1.5,0,2.4-0.4,2.9-1.2c0.4-0.6,1.6-1.7,2.7-2.2C44.8,93.4,47.9,94,50.2,96.5z"/></g></g></g>
</svg>