<?xml version="1.0" standalone="no"?>
<!DOCTYPE svg PUBLIC "-//W3C//DTD SVG 20010904//EN"
 "http://www.w3.org/TR/2001/REC-SVG-20010904/DTD/svg10.dtd">
<svg version="1.0" xmlns="http://www.w3.org/2000/svg"
 width="512.000000pt" height="512.000000pt" viewBox="0 0 512.000000 512.000000"
 preserveAspectRatio="xMidYMid meet">

<g transform="translate(0.000000,512.000000) scale(0.100000,-0.100000)"
fill="#000000" stroke="none">
<path d="M1283 5105 c-42 -18 -88 -83 -103 -145 -21 -87 1 -153 112 -328 134
-214 159 -275 138 -351 -13 -51 -122 -170 -178 -196 -80 -37 -202 -127 -275
-204 -62 -66 -79 -90 -92 -136 -30 -102 -6 -169 133 -378 75 -113 93 -147 106
-206 20 -88 20 -121 0 -149 -20 -28 -63 -29 -98 -1 -54 43 -106 182 -106 285
0 53 -4 67 -26 93 -75 90 -232 -15 -334 -222 -99 -201 -71 -285 140 -422 104
-68 135 -97 127 -118 -3 -8 -32 -29 -64 -47 -75 -42 -173 -143 -207 -211 -38
-79 -59 -189 -52 -273 9 -99 23 -150 68 -244 33 -70 57 -102 156 -205 128
-132 157 -172 167 -229 9 -48 -21 -114 -104 -227 -143 -197 -162 -322 -75
-500 152 -309 720 -566 1464 -663 224 -29 650 -31 845 -4 373 52 659 171 832
348 117 119 158 221 119 296 -15 29 -86 98 -149 146 -46 35 -36 46 43 46 165
1 291 85 335 225 16 52 17 80 11 249 -10 278 11 364 115 482 72 82 133 202
154 302 19 94 20 310 1 355 -17 42 -67 84 -114 97 -40 10 -98 0 -137 -26 -23
-15 -65 -83 -65 -105 0 -28 -50 -121 -62 -117 -9 3 -15 43 -20 129 -12 234
-83 377 -355 717 -156 196 -188 252 -188 337 0 76 16 108 122 250 185 246 231
414 157 574 -58 128 -173 185 -262 131 -37 -23 -71 -88 -72 -136 -1 -110 -19
-121 -222 -130 -175 -7 -255 -27 -317 -81 -106 -90 -109 -214 -11 -473 25 -65
33 -107 37 -176 6 -102 -5 -149 -42 -184 -45 -42 -176 -21 -211 35 -11 17 -8
34 17 110 27 78 30 101 27 175 -3 70 -10 97 -36 155 -36 76 -83 140 -146 198
-58 54 -182 135 -224 147 -85 23 -157 2 -193 -57 -20 -32 -21 -43 -15 -133 6
-88 5 -104 -13 -139 -23 -44 -71 -85 -119 -102 -92 -32 -187 130 -152 258 11
39 27 61 83 113 233 219 242 233 242 385 0 94 -2 104 -33 161 -66 122 -168
201 -330 258 -148 51 -230 99 -338 197 -88 80 -140 95 -211 64z m651 -2056 c3
-17 26 -64 50 -105 85 -139 90 -201 20 -244 -91 -57 -154 33 -154 220 0 76 11
114 42 147 25 27 33 23 42 -18z m769 -204 c149 -30 259 -61 312 -88 202 -102
358 -286 451 -533 69 -184 122 -602 95 -759 -24 -141 -119 -272 -226 -309 -25
-9 -66 -23 -92 -32 -51 -19 -112 -69 -142 -118 -11 -17 -33 -79 -49 -136 l-29
-105 -44 0 -43 0 -16 78 c-18 84 -42 120 -97 143 -82 35 -201 1 -234 -66 -10
-19 -25 -78 -34 -130 -9 -52 -19 -98 -21 -102 -3 -4 -36 -8 -73 -8 l-69 0 -21
112 c-21 115 -35 145 -85 182 -40 30 -162 30 -203 0 -44 -33 -71 -80 -78 -138
-9 -71 -15 -78 -60 -74 l-39 3 -31 107 c-50 168 -103 229 -236 268 -91 27
-155 73 -206 148 -53 78 -73 164 -73 310 0 416 114 766 319 983 l70 74 18 -25
c86 -120 230 -133 355 -30 53 44 82 110 80 186 l0 63 31 5 c18 3 43 7 57 9 14
3 85 5 158 6 105 1 157 -4 255 -24z"/>
<path d="M1855 2237 c-132 -44 -232 -148 -270 -282 -78 -268 165 -520 435
-451 128 33 216 106 274 226 28 59 31 74 31 160 0 82 -4 103 -27 152 -35 76
-95 138 -165 173 -48 24 -73 29 -148 32 -56 2 -105 -2 -130 -10z m215 -159
c26 -14 57 -41 75 -66 27 -40 30 -51 30 -120 -1 -85 -14 -119 -66 -171 -150
-151 -389 -68 -389 134 0 175 197 300 350 223z"/>
<path d="M2843 2236 c-59 -19 -104 -49 -155 -104 -118 -125 -121 -338 -8 -481
48 -61 89 -92 165 -128 52 -24 73 -28 150 -28 76 0 99 4 147 27 115 54 188
149 210 275 10 60 9 80 -5 139 -32 127 -111 226 -226 281 -45 22 -73 27 -146
30 -57 2 -105 -2 -132 -11z m228 -164 c60 -31 111 -96 130 -165 25 -90 -22
-197 -105 -240 -172 -90 -386 80 -345 274 29 136 186 201 320 131z"/>
<path d="M2379 1640 c-45 -24 -111 -97 -139 -154 -42 -87 -14 -189 65 -233 35
-20 54 -23 158 -23 132 0 155 7 205 64 36 42 50 107 32 160 -17 53 -88 143
-139 176 -54 36 -125 40 -182 10z m141 -177 c59 -68 53 -77 -53 -81 -71 -2
-88 0 -93 13 -11 27 56 115 87 115 9 0 36 -21 59 -47z"/>
<path d="M3125 5073 c-54 -15 -95 -66 -95 -121 0 -16 -19 -59 -42 -98 -63
-103 -87 -170 -88 -237 0 -71 20 -120 68 -170 144 -149 347 -96 407 105 66
223 18 430 -115 498 -41 21 -103 32 -135 23z"/>
<path d="M781 4793 c-58 -20 -130 -93 -163 -164 -37 -77 -62 -207 -56 -291 7
-94 43 -153 118 -191 47 -25 63 -28 114 -24 77 7 159 49 197 102 50 70 57 161
23 310 -8 35 -11 82 -7 115 7 74 -13 115 -70 141 -50 22 -96 23 -156 2z"/>
<path d="M4333 3449 c-45 -13 -79 -58 -87 -114 -4 -30 -21 -71 -44 -109 -110
-174 -109 -306 3 -404 142 -125 316 -73 379 112 57 167 39 344 -44 439 -60 67
-139 97 -207 76z"/>
</g>
</svg>
