<?xml version="1.0" standalone="no"?>
<!DOCTYPE svg PUBLIC "-//W3C//DTD SVG 20010904//EN"
 "http://www.w3.org/TR/2001/REC-SVG-20010904/DTD/svg10.dtd">
<svg version="1.0" xmlns="http://www.w3.org/2000/svg"
 width="512.000000pt" height="512.000000pt" viewBox="0 0 512.000000 512.000000"
 preserveAspectRatio="xMidYMid meet">

<g transform="translate(0.000000,512.000000) scale(0.100000,-0.100000)"
fill="#000000" stroke="none">
<path d="M1321 4895 c-24 -7 -61 -31 -83 -52 -61 -60 -70 -107 -66 -336 3
-189 3 -193 31 -239 71 -121 234 -142 332 -44 58 59 65 93 65 319 0 194 0 195
-28 248 -48 92 -153 136 -251 104z"/>
<path d="M3241 4895 c-24 -7 -61 -31 -83 -52 -61 -60 -70 -107 -66 -336 3
-189 3 -193 31 -239 71 -121 234 -142 332 -44 58 59 65 93 65 319 0 194 0 195
-28 248 -48 92 -153 136 -251 104z"/>
<path d="M768 4579 c-147 -21 -297 -123 -374 -255 -62 -105 -67 -137 -72 -426
l-4 -268 2026 0 2026 0 0 248 c0 187 -4 262 -15 305 -46 178 -186 326 -356
378 -45 14 -100 21 -166 22 l-98 2 -5 -160 c-5 -154 -6 -162 -37 -227 -44 -94
-109 -160 -202 -206 -73 -36 -78 -37 -185 -37 -106 0 -114 2 -180 34 -77 37
-148 102 -189 171 -42 73 -57 149 -57 297 l0 133 -532 -2 -533 -3 -5 -160 c-5
-154 -6 -162 -37 -227 -44 -94 -109 -160 -202 -206 -73 -36 -78 -37 -185 -37
-106 0 -114 2 -180 34 -77 37 -148 102 -189 171 -42 73 -57 149 -57 297 l0
133 -67 -1 c-38 -1 -94 -5 -125 -10z"/>
<path d="M322 2183 l3 -1228 27 -69 c64 -165 178 -272 358 -335 40 -14 178
-16 1178 -19 622 -1 1132 -1 1132 1 0 2 -18 43 -41 91 -210 450 -72 994 330
1297 276 207 652 266 981 154 41 -14 75 -25 77 -25 2 0 3 306 3 680 l0 680
-2025 0 -2025 0 2 -1227z m1204 671 c68 -51 69 -53 69 -294 0 -205 -1 -220
-21 -246 -51 -68 -53 -69 -294 -69 -205 0 -220 1 -246 21 -67 49 -69 57 -72
267 -4 221 -1 245 35 288 47 55 67 59 295 56 191 -2 209 -4 234 -23z m1053 6
c22 -11 50 -36 62 -57 23 -37 24 -45 24 -243 0 -198 -1 -206 -24 -243 -44 -71
-74 -79 -306 -75 -226 3 -233 5 -282 78 -22 32 -23 42 -23 237 0 217 3 235 52
280 40 37 67 42 266 42 173 1 197 -1 231 -19z m1078 -6 c15 -11 38 -36 51 -54
21 -32 22 -42 22 -240 0 -198 -1 -208 -22 -240 -50 -73 -57 -75 -284 -78 -197
-3 -206 -2 -245 20 -22 12 -50 38 -62 58 -21 33 -22 46 -22 240 0 233 6 255
81 298 38 21 47 22 246 20 192 -3 209 -5 235 -24z m-2134 -1173 c71 -44 79
-74 75 -306 -3 -226 -5 -233 -78 -282 -32 -22 -42 -23 -240 -23 -198 0 -208 1
-240 23 -73 49 -75 56 -78 282 -3 187 -1 207 17 242 42 84 76 94 316 90 180
-2 192 -3 228 -26z m1029 19 c51 -15 105 -77 113 -132 4 -25 5 -121 3 -214 -3
-189 -12 -217 -78 -261 -32 -22 -42 -23 -237 -23 -228 0 -254 6 -296 64 -21
29 -22 42 -25 246 -3 211 -3 216 20 250 13 19 43 45 68 58 41 20 58 22 220 22
96 0 191 -5 212 -10z"/>
<path d="M3770 1901 c-318 -69 -567 -310 -651 -626 -30 -114 -30 -288 -1 -407
78 -316 315 -553 631 -630 118 -29 294 -29 406 1 200 53 381 179 494 344 46
68 105 199 127 282 27 105 26 315 -4 417 -44 157 -115 278 -224 386 -114 113
-226 179 -379 222 -108 31 -287 36 -399 11z m534 -525 c44 -18 66 -52 66 -100
0 -39 -7 -47 -243 -283 l-242 -243 -44 0 c-43 0 -47 3 -178 132 -147 146 -161
172 -128 233 20 38 52 55 102 55 31 0 46 -10 120 -82 l84 -82 182 181 c159
159 207 200 240 202 4 1 23 -5 41 -13z"/>
</g>
</svg>
