<svg viewBox="0 0 1024 1024" xmlns="http://www.w3.org/2000/svg"><path d="M743 336l239-95V72L743 336zM680 34l-39 179L783 34H680zm302 488v-81l-169 55 169 26zM660 361q-35-48-74-85.5T508.5 212q-38.5-26-75-39.5T366 160q-14 1-27 4.5T315 176q-25 17-26.5 52T269 301q-29 67-58.5 124.5t-58 107Q124 582 96 624t-54 77v207q46-16 104-32t129-29q71-13 155.5-22T616 812q42-1 75 9.5t58-6.5q31-22 41.5-65.5t1-100.5q-9.5-57-37-123T682 394q-5-9-10.5-17T660 361zm-263-64q24-14 80 34t111 131q55 83 77 152t-2 84q-10 6-26 .5T601 679q-29-29-59-66t-59-80q-29-43-52-84t-40-79q-8-27-6.5-46.5T397 297z"/></svg>