<svg viewBox="0 0 1024 1024" xmlns="http://www.w3.org/2000/svg"><path d="M934 610q40-41 49.5-89.5T965 444q-28-28-76.5-19T799 475q-8 8-15 16.5T771 509q-70-43-177-20.5T409.5 571q-77.5 60-93 146T414 888H176l-53 95h514L460 777q36-40 92.5-64T654 687q10 34 23.5 74.5t31.5 81q18 40.5 39.5 77.5t48.5 63h121q-32-35-60-75.5t-49.5-86Q787 776 773 726.5T755 624q2 5 5 9t7 8q28 28 77 19t90-50zm-634 89q12-67 62.5-117t119-79Q550 474 625 468t135 15l103-256-164 165 38-323-83 192-28-77-65 166L400 42l27 287-260-213 145 280-155-59 68 124-163-4 209 136-208 60 237 46z"/></svg>